<svg viewBox="0 0 24 24" fill="none" xmlns="http://www.w3.org/2000/svg">
  <path d="M12 22C17.5228 22 22 17.5228 22 12C22 6.47715 17.5228 2 12 2C6.47715 2 2 6.47715 2 12C2 17.5228 6.47715 22 12 22Z" stroke="#00f3ff" stroke-width="1.5"/>
  <path d="M12 18C15.3137 18 18 15.3137 18 12C18 8.68629 15.3137 6 12 6C8.68629 6 6 8.68629 6 12C6 15.3137 8.68629 18 12 18Z" stroke="#00f3ff" stroke-width="1" stroke-dasharray="2 2"/>
  <circle cx="12" cy="12" r="3" fill="#00f3ff" opacity="0.3"/>
  <circle cx="12" cy="12" r="1.5" fill="#00f3ff"/>
  <path d="M12 10.5V4C14 4 15.5 6 15.5 9L12 10.5Z" fill="#00f3ff"/>
  <path d="M13.5 12H20C20 14 18 15.5 15 15.5L13.5 12Z" fill="#00f3ff"/>
  <path d="M12 13.5V20C10 20 8.5 18 8.5 15L12 13.5Z" fill="#00f3ff"/>
  <path d="M10.5 12H4C4 10 6 8.5 9 8.5L10.5 12Z" fill="#00f3ff"/>
</svg>
