<svg viewBox="0 0 24 24" fill="none" xmlns="http://www.w3.org/2000/svg">
  <path d="M4 8V16C4 17.1046 4.89543 18 6 18H18C19.1046 18 20 17.1046 20 16V8C20 6.89543 19.1046 6 18 6H6C4.89543 6 4 6.89543 4 8Z" stroke="#00f3ff" stroke-width="1.5"/>
  <path d="M6 18V21M10 18V21M14 18V21M18 18V21" stroke="#00f3ff" stroke-width="1.5"/>
  <path d="M6 6V3M10 6V3M14 6V3M18 6V3" stroke="#00f3ff" stroke-width="1.5"/>
  <path d="M7 12C7 12 9 10 12 10C15 10 17 12 17 12" stroke="#00f3ff" stroke-width="1.5" stroke-linecap="round"/>
  <path d="M8 14C8 14 10 13 12 13C14 13 16 14 16 14" stroke="#00f3ff" stroke-width="1"/>
  <circle cx="12" cy="12" r="1.5" fill="#00f3ff"/>
</svg>
